<?xml version="1.0" encoding="UTF-8" standalone="no"?>
<!DOCTYPE svg PUBLIC "-//W3C//DTD SVG 20010904//EN" "http://www.w3.org/TR/2001/REC-SVG-20010904/DTD/svg10.dtd">
<svg version="1.0" xmlns="http://www.w3.org/2000/svg" width="600.000000pt" height="471.000000pt" viewBox="0 0 600.000000 471.000000" preserveAspectRatio="xMidYMid meet">
<g transform="translate(0.000000,471.000000) scale(0.050000,-0.050000)" fill="#000000" stroke="none">
<path d="M6699 8750 c-129 -41 -224 -110 -483 -353 -298 -279 -339 -338 -316 -457 35 -174 27 -211 -70 -320 -136 -153 -195 -310 -130 -350 22 -13 -40 -149 -84 -184 -14 -11 -143 -26 -286 -32 -1014 -45 -2806 -893 -3473 -1644 -511 -575 -1057 -1609 -1418 -2683 -121 -360 -117 -375 222 -767 86 -100 125 -167 168 -290 129 -372 507 -1097 832 -1595 l49 -75 2061 0 2060 0 105 106 c106 108 121 146 82 218 -14 25 -15 46 -3 54 102 66 9 286 -94 222 -17 -10 -44 -6 -69 11 -148 95 -322 49 -464 -125 l-77 -93 -15 74 c-25 118 -69 166 -243 261 -393 215 -513 449 -513 998 0 72 -8 137 -18 143 -10 6 -24 58 -32 116 -7 58 -27 188 -43 289 -54 324 65 653 353 975 88 99 194 238 235 308 42 72 174 232 298 361 l224 232 194 -210 c1002 -1082 1536 -1500 1794 -1402 26 10 209 24 406 31 481 17 897 61 1249 130 159 32 362 68 450 81 88 12 179 26 202 31 49 10 80 78 99 211 16 118 142 185 409 219 94 11 186 26 205 31 56 17 43 -40 -45 -200 -123 -224 -110 -264 157 -478 227 -184 475 8 663 513 40 106 48 115 99 110 74 -8 116 30 145 130 13 46 42 108 64 138 25 35 43 98 48 176 8 106 15 124 57 140 102 39 58 255 -90 439 -264 327 -623 420 -726 187 -41 -91 -46 -96 -526 -479 -264 -211 -301 -223 -721 -248 -176 -10 -363 -25 -416 -32 -60 -9 -125 -4 -173 12 -58 19 -93 20 -139 4 -48 -17 -86 -15 -163 8 -100 30 -390 40 -779 27 -349 -11 -658 146 -790 401 -17 34 -73 125 -123 203 -98 151 -205 370 -442 907 -180 407 -267 615 -260 619 3 1 55 33 115 71 144 89 227 90 410 3 247 -117 360 -109 404 27 12 39 46 74 94 100 41 22 85 58 97 80 12 22 52 77 88 122 37 45 67 101 67 125 0 29 21 51 68 71 115 48 143 111 115 261 -31 169 -29 251 8 292 16 18 44 109 62 201 37 202 19 182 136 147 389 -117 686 95 393 280 -74 47 -329 139 -444 160 -58 11 -109 149 -166 451 -36 188 -56 239 -115 294 -161 149 -821 287 -1038 216z"/>
</g>
</svg>