<svg xmlns="http://www.w3.org/2000/svg" version="1.1" xmlns:xlink="http://www.w3.org/1999/xlink" width="1000" height="1000"><g clip-path="url(#SvgjsClipPath1507)"><rect width="1000" height="1000" fill="#ffffff"></rect><g transform="matrix(1,0,0,1,200,264.5)"><svg xmlns="http://www.w3.org/2000/svg" version="1.1" xmlns:xlink="http://www.w3.org/1999/xlink" width="600.000000pt" height="471.000000pt"><svg version="1.0" xmlns="http://www.w3.org/2000/svg" width="600.000000pt" height="471.000000pt" viewBox="0 0 600.000000 471.000000" preserveAspectRatio="xMidYMid meet">
<g transform="translate(0.000000,471.000000) scale(0.050000,-0.050000)" fill="#000000" stroke="none">
<path d="M6699 8750 c-129 -41 -224 -110 -483 -353 -298 -279 -339 -338 -316 -457 35 -174 27 -211 -70 -320 -136 -153 -195 -310 -130 -350 22 -13 -40 -149 -84 -184 -14 -11 -143 -26 -286 -32 -1014 -45 -2806 -893 -3473 -1644 -511 -575 -1057 -1609 -1418 -2683 -121 -360 -117 -375 222 -767 86 -100 125 -167 168 -290 129 -372 507 -1097 832 -1595 l49 -75 2061 0 2060 0 105 106 c106 108 121 146 82 218 -14 25 -15 46 -3 54 102 66 9 286 -94 222 -17 -10 -44 -6 -69 11 -148 95 -322 49 -464 -125 l-77 -93 -15 74 c-25 118 -69 166 -243 261 -393 215 -513 449 -513 998 0 72 -8 137 -18 143 -10 6 -24 58 -32 116 -7 58 -27 188 -43 289 -54 324 65 653 353 975 88 99 194 238 235 308 42 72 174 232 298 361 l224 232 194 -210 c374 -403 1040 -1052 1219 -1186 309 -232 409 -267 559 -195 74 35 232 79 501 138 518 113 799 197 1170 347 149 60 335 130 415 154 214 67 236 90 231 249 l-3 131 93 69 c85 61 494 210 516 187 5 -4 -18 -89 -51 -188 -81 -244 -72 -269 129 -391 366 -222 542 -72 670 570 21 107 27 115 79 115 72 0 96 31 112 141 7 49 27 127 43 173 22 59 27 116 17 193 -12 98 -10 109 29 119 62 16 36 196 -42 296 -182 232 -542 394 -741 335 -92 -28 -102 -40 -135 -157 -31 -107 -68 -159 -318 -438 -105 -117 -216 -241 -247 -277 -82 -92 -184 -138 -441 -197 -124 -29 -301 -74 -392 -101 -177 -52 -255 -62 -306 -40 -20 10 -69 -12 -140 -61 -106 -73 -112 -75 -348 -88 -132 -7 -298 -29 -370 -48 -312 -84 -593 31 -756 310 -29 50 -92 152 -140 227 -96 148 -204 372 -439 903 -180 407 -267 615 -260 619 3 1 55 33 115 71 144 89 227 90 410 3 247 -117 360 -109 404 27 12 39 46 74 94 100 41 22 85 58 97 80 12 22 52 77 88 122 37 45 67 101 67 125 0 29 21 51 68 71 115 48 143 111 115 261 -31 169 -29 251 8 292 16 18 44 109 62 201 37 202 19 182 136 147 389 -117 686 95 393 280 -74 47 -329 139 -444 160 -58 11 -109 149 -166 451 -36 188 -56 239 -115 294 -161 149 -821 287 -1038 216z"></path>
</g>
</svg></svg></g></g><defs><clipPath id="SvgjsClipPath1507"><rect width="1000" height="1000" x="0" y="0" rx="250" ry="250"></rect></clipPath></defs></svg>